# xmcd
# 
# Track frame offsets:
#     150
#     10203
#     23410
#     37808
#     66617
#     94548
#     114813
#     142550
#     158751
#     179533
#     220079
#     232476
#     259889
#     271258
#     279914
#     309785
# 
# Disc length: 4620
# 
# Revision: 1
# Processed by: cddbd v1.5.2PL0 Copyright (c) Steve Scherf et al.
# Submitted via: fre:ac v1.0.31
# 
DISCID=ca120a10
DTITLE=Various Artist - Boss Jazz - A Collection of Hard-Boiled Jazz
DYEAR=2008
DGENRE=Jazz
TTITLE0=Hubert Bianco and His Orchestra (Michel Magne) - Melodie en Sous Sol "Palm Beach"
TTITLE1=Tokyo Cuban Boys with Nobuo Hara and Sharps and Flats (Henry Mancini) - Charade
TTITLE2=Hideo Shiraki Quintet (Duke Ellington, Juan Tizol)- Caravan
TTITLE3=Airto (Airto Moreira) - Tombo in 7/4
TTITLE4=Duke Jordan (Duke Jordan) - No Problem
TTITLE5=Secret Agent Men (Lalo Schifrin) - Mission Impossible Theme
TTITLE6=Secret Agent Men (Ronnie Smith) - Chase Game
TTITLE7=Secret Agent Men (Tadashi Yamaguchi) - The Guardman
TTITLE8=Secret Agent Men (Lionet Bart) - From Russia with Love
TTITLE9=Deodato (Richard Strauss) - Also Sprach Zarathustra (2001)
TTITLE10=Lalo Shifrin (Lalo Shifrin) - Most Wanted Theme
TTITLE11=Lalo Shifrin (Lalo Shifrin) - Midnight Woman
TTITLE12=Hideo Shiraki Quintet (Consuelo Velazquez) - Besame Mucho
TTITLE13=Hideo Shiraki Quintet (Michiaki Suzuki) - Akasaka After Dark
TTITLE14=Hideo Shiraki Quintet (Horace Silver) - Sayonara Blues
TTITLE15=Alan Broadbent (Thelonious Monk, Cootie Williams) - Round Midnight
EXTD=YEAR: 2008
EXTT0=
EXTT1=
EXTT2=
EXTT3=
EXTT4=
EXTT5=
EXTT6=
EXTT7=
EXTT8=
EXTT9=
EXTT10=
EXTT11=
EXTT12=
EXTT13=
EXTT14=
EXTT15=
PLAYORDER=
